<?xml version="1.0" encoding="UTF-8" standalone="no"?>
<svg
   xmlns:dc="http://purl.org/dc/elements/1.1/"
   xmlns:cc="http://creativecommons.org/ns#"
   xmlns:rdf="http://www.w3.org/1999/02/22-rdf-syntax-ns#"
   xmlns:svg="http://www.w3.org/2000/svg"
   xmlns="http://www.w3.org/2000/svg"
   xmlns:sodipodi="http://sodipodi.sourceforge.net/DTD/sodipodi-0.dtd"
   xmlns:inkscape="http://www.inkscape.org/namespaces/inkscape"
   version="1.0"
   width="32"
   height="32"
   viewBox="0 0 25.6 25.6"
   preserveAspectRatio="xMidYMid meet"
   id="svg2"
   inkscape:version="0.91 r13725"
   sodipodi:docname="boombox.svg">
  <defs
     id="defs48" />
  <sodipodi:namedview
     pagecolor="#ffffff"
     bordercolor="#666666"
     borderopacity="1"
     objecttolerance="10"
     gridtolerance="10"
     guidetolerance="10"
     inkscape:pageopacity="0"
     inkscape:pageshadow="2"
     inkscape:window-width="1920"
     inkscape:window-height="1057"
     id="namedview46"
     showgrid="false"
     units="px"
     inkscape:zoom="8.2307229"
     inkscape:cx="47.944375"
     inkscape:cy="8.4679819"
     inkscape:window-x="-8"
     inkscape:window-y="-8"
     inkscape:window-maximized="1"
     inkscape:current-layer="svg2" />
  <metadata
     id="metadata4">
Created by potrace 1.15, written by Peter Selinger 2001-2017
<rdf:RDF>
  <cc:Work
     rdf:about="">
    <dc:format>image/svg+xml</dc:format>
    <dc:type
       rdf:resource="http://purl.org/dc/dcmitype/StillImage" />
    <dc:title></dc:title>
  </cc:Work>
</rdf:RDF>
</metadata>
  <g
     id="g3433"
     transform="matrix(1,0,0,0.96331838,-0.29159043,0.28882737)">
    <path
       d="m 21.432931,-0.06087984 c -0.151659,0.0384696 -0.415197,0.192348 -0.534535,0.3077568 -0.156632,0.1538784 -0.206356,0.32058 -0.193925,0.63859536 0.0099,0.28211038 0.06713,0.41034238 0.293373,0.65654788 l 0.166576,0.1820894 0.0174,1.6157232 c 0.0099,0.8873654 0.02735,1.8747518 0.03978,2.1927672 0.01492,0.3180154 0.03232,1.2515443 0.03978,2.0773584 0.01492,1.5644304 0.01243,1.6439342 -0.101934,2.9749826 -0.04973,0.548833 -0.08205,0.774521 -0.119338,0.812991 -0.0174,0.01795 -0.119339,0.0436 -0.228732,0.05899 -0.323207,0.0436 -1.310232,0.123103 -1.359957,0.107715 -0.0547,-0.01282 -0.231217,-0.31545 -0.295859,-0.510363 -0.04972,-0.141055 -0.109393,-0.946352 -0.09199,-1.2233334 0.0075,-0.120538 0.0099,-0.128232 0.106907,-0.1615723 0.0547,-0.020517 0.154145,-0.043599 0.223759,-0.053857 0.171548,-0.025646 0.193924,-0.07181 0.17652,-0.4154717 -0.005,-0.1487491 -0.03978,-0.448812 -0.07707,-0.6668064 C 19.347001,7.6253462 19.15059,6.5917963 19.113297,6.5071632 19.0586,6.394319 18.8423,6.2353114 18.663293,6.1814539 c -0.11188,-0.03334 -0.206356,-0.035905 -0.522104,-0.023082 -0.213814,0.010258 -0.494756,0.030776 -0.624039,0.041034 -0.129283,0.012823 -0.353042,0.035905 -0.497242,0.048728 -0.1442,0.015388 -0.713542,0.043599 -1.267967,0.066681 -0.554425,0.023082 -1.270453,0.056422 -1.591175,0.076939 -0.320721,0.020517 -0.81299,0.043599 -1.093932,0.051293 -0.280942,0.00769 -0.728459,0.030776 -0.994484,0.051293 -0.266024,0.020517 -0.606635,0.043599 -0.758294,0.051293 -0.149173,0.00769 -0.462435,0.030776 -0.696139,0.051293 C 10.3867,6.6174427 9.904375,6.6456538 9.548847,6.6610416 9.1933189,6.6738648 8.7507735,6.6969466 8.566794,6.7123344 8.3828145,6.7251576 8.0969003,6.7431101 7.9328104,6.750804 7.2665062,6.786709 5.8269906,6.9534106 5.4838936,7.035479 5.3048865,7.0765133 5.2104105,7.1278061 5.0488068,7.2688613 4.9493584,7.3534944 4.9344412,7.3817054 4.9021205,7.5432778 4.8548825,7.7740954 4.8200755,8.133145 4.7877548,8.7512232 c -0.014917,0.2667226 -0.032321,0.5026694 -0.039779,0.5231866 -0.017403,0.053857 -0.084531,0.5334451 -0.084531,0.605255 0,0.089762 0.1591174,0.2615932 0.2685107,0.2949332 0.05221,0.01282 0.1914381,0.02565 0.3132624,0.02565 l 0.2212727,0 -0.012431,0.85659 c -0.012431,0.810426 -0.017404,0.861719 -0.064642,0.943787 -0.074586,0.125667 -0.154145,0.192348 -0.2660245,0.223124 -0.054697,0.01539 -0.3232073,0.04103 -0.5966904,0.05386 -0.5593972,0.02821 -0.865201,0.06155 -1.1187944,0.117974 -0.094476,0.02052 -0.2461348,0.05129 -0.3356384,0.06412 -0.089504,0.01539 -0.2237589,0.03847 -0.2983452,0.05129 -0.074586,0.01539 -0.2312175,0.0436 -0.3480694,0.06668 -0.2709969,0.04873 -0.556911,0.164137 -0.7533216,0.297498 -0.2337038,0.164137 -0.3281798,0.32571 -0.484811,0.854025 -0.154145,0.510364 -0.1640898,0.582174 -0.21630025,1.477233 -0.0198897,0.371873 -0.047238,0.795038 -0.0621553,0.943788 -0.0149173,0.148749 -0.0372932,0.600125 -0.0497242,1.005338 -0.0149173,0.405214 -0.0422656,0.889931 -0.0646415,1.077149 -0.0348069,0.294934 -0.0372931,0.67963 -0.0298345,2.815975 0.002486,1.361824 -0.002486,2.808281 -0.0149173,3.218623 -0.0223759,0.800168 -0.007459,1.038679 0.0870174,1.182299 0.0248621,0.04103 0.0696139,0.112844 0.0994484,0.156443 0.0721001,0.115409 0.29834515,0.251335 0.51961785,0.312886 0.3953074,0.11028 1.7726677,0.412907 1.9939404,0.438554 0.2660245,0.03078 1.183436,0.07694 1.2232153,0.06155 0.014917,-0.0051 0.994484,-0.02052 2.17792,-0.0359 2.6527861,-0.03334 3.043121,-0.04873 4.823248,-0.220559 0.822935,-0.0795 1.103877,-0.09233 2.376816,-0.125667 1.46935,-0.03847 1.964106,-0.06668 3.14257,-0.18209 2.212727,-0.212865 2.379303,-0.228253 3.368814,-0.279545 1.454433,-0.07437 1.807475,-0.107715 2.324607,-0.220559 0.447517,-0.09746 0.681221,-0.164137 1.151115,-0.328274 0.661332,-0.233383 0.800559,-0.335968 0.929842,-0.682195 0.03729,-0.09746 0.08205,-0.202606 0.09945,-0.230817 0.06216,-0.10515 0.08205,-0.389825 0.109393,-1.538784 0.01989,-0.871978 0.01989,-1.277191 0,-1.551607 -0.04724,-0.628337 -0.07707,-1.933739 -0.0721,-3.103215 0.0075,-0.966869 0.0025,-1.148959 -0.03481,-1.372082 -0.02735,-0.148749 -0.05967,-0.592432 -0.08205,-1.051503 -0.09199,-1.928609 -0.191438,-2.549252 -0.522104,-3.285303 -0.188952,-0.418037 -0.38039,-0.664242 -0.549452,-0.702712 -0.0547,-0.01282 -0.390335,-0.03077 -0.74835,-0.04103 l -0.651387,-0.01795 0.0025,-0.477023 c 0,-0.261593 -0.01243,-0.887365 -0.02735,-1.3874698 -0.01492,-0.5001048 -0.02735,-1.1771698 -0.02735,-1.5003144 0,-0.3257093 -0.01243,-0.7924738 -0.02486,-1.0386792 -0.01492,-0.2898043 -0.01492,-0.6001258 0.0025,-0.8719776 0.03978,-0.7027114 0.03232,-1.5131376 -0.0174,-1.795248 -0.07459,-0.4282949 -0.04475,-1.6824038 0.0547,-2.3466456 0.02238,-0.1410552 0.03978,-0.3616142 0.03729,-0.4872816 -0.0025,-0.128232 -0.0025,-0.2769811 -0.0025,-0.3334032 0.01492,-0.75913344 0.01492,-0.76426272 -0.04972,-0.87967152 C 22.429911,0.26997668 22.355328,0.19047288 22.290686,0.146874 22.05201,-0.01213368 21.626868,-0.11471928 21.432944,-0.06086184 Z m 0.330666,0.40264848 c 0.169062,0.0718099 0.353041,0.30519216 0.353041,0.448812 0,0.0692453 -0.298345,0.38982526 -0.415197,0.44624736 -0.09199,0.046164 -0.251107,0.03847 -0.370445,-0.017953 -0.09199,-0.043599 -0.121824,-0.1820894 -0.08702,-0.3923899 0.04475,-0.26672256 0.146686,-0.43342416 0.300831,-0.49754016 0.08702,-0.035905 0.11188,-0.0333403 0.218787,0.0128232 z m 0.03978,1.47723266 c 0.0075,0.061551 0.01989,0.3923899 0.02735,0.7386163 0.0075,0.3462264 0.02486,0.7668274 0.03729,0.9360936 0.01492,0.1769602 0.02238,1.4951851 0.01989,3.077568 -0.005,2.336387 0.0025,2.8877846 0.03729,3.5263798 0.0547,0.977128 0.0547,1.264368 0.0025,1.318225 -0.04724,0.05129 -0.25608,0.05386 -0.320722,0.0077 -0.04972,-0.03847 -0.04972,-0.10515 0.01492,-0.915576 0.04227,-0.5462687 0.01243,-4.3162895 -0.03978,-5.039518 -0.04475,-0.6206429 -0.07707,-3.105779 -0.04475,-3.462264 l 0.01989,-0.228253 0.09945,-0.030776 c 0.0547,-0.017953 0.106907,-0.03334 0.116852,-0.03334 0.0099,-0.00256 0.02238,0.046164 0.02983,0.1051503 z m -3.05058,4.9702723 c 0.05718,0.1179734 0.20387,0.7745213 0.25608,1.1412648 0.0174,0.1128442 0.03232,0.3616142 0.03481,0.5565269 0.0025,0.4103424 -0.0099,0.4385534 -0.248621,0.577044 -0.149173,0.084633 -0.666304,0.2744165 -0.837853,0.3051921 -0.106907,0.017952 -0.161603,-0.010258 -0.345583,-0.1897833 l -0.119338,-0.1154088 0,-0.3103215 c -0.0025,-0.5513976 -0.0721,-1.0874073 -0.159118,-1.21051 -0.03729,-0.051293 -0.353041,-0.1307967 -0.636469,-0.1615724 -0.273483,-0.030776 -2.376817,0.00769 -3.30666,0.058987 -0.390335,0.023082 -1.039235,0.051293 -1.442001,0.066681 -0.402766,0.015388 -0.862715,0.03847 -1.019346,0.051293 -0.156632,0.012823 -0.397794,0.025646 -0.534536,0.025646 -0.4002795,0 -1.175977,0.074375 -1.7652088,0.1667016 -0.3008314,0.046163 -0.6364697,0.092327 -0.745863,0.1025856 -0.3704452,0.030776 -0.6489008,0.1461845 -0.711056,0.3000629 -0.027348,0.064116 -0.034807,0.2026065 -0.029834,0.5513976 0.00249,0.3667435 -0.00249,0.4693291 -0.027348,0.4693291 -0.017404,0 -0.099448,0.07181 -0.1839796,0.1615723 L 6.7816952,9.4975334 6.3242326,9.5308738 C 5.8617975,9.5642141 5.7648353,9.5770373 5.5485351,9.6385886 L 5.429197,9.6744936 5.3546107,9.5847312 C 5.2029519,9.3975125 5.180576,9.3282672 5.2004657,9.0384629 5.2079243,8.894843 5.2253278,8.7332707 5.2377588,8.6794133 5.2526761,8.6281205 5.287483,8.4280786 5.3198037,8.2382952 5.3869314,7.8535992 5.4267108,7.7612722 5.5733972,7.6535573 5.6952214,7.5663595 6.080584,7.4868557 6.779209,7.4073518 7.0352886,7.3791408 7.2739648,7.3432358 7.3087717,7.327848 7.3460649,7.3150248 7.6294928,7.2868138 7.9402691,7.263732 8.2510453,7.2432149 8.5841975,7.2150038 8.6786734,7.199616 8.7756354,7.186793 8.9919359,7.16884 9.1634844,7.161146 9.3350329,7.156016 9.5985712,7.132935 9.7477438,7.112418 9.8994026,7.091901 10.324544,7.061125 10.692504,7.045737 11.062949,7.030349 11.689474,7.002138 12.084781,6.981621 12.482575,6.961104 13.06932,6.938022 13.390041,6.930328 14.066291,6.912376 15.105526,6.855953 15.801665,6.802096 16.06769,6.781579 16.622114,6.750803 17.032339,6.735415 17.442564,6.722592 17.902513,6.69951 18.051685,6.689251 18.203344,6.676428 18.409699,6.668734 18.511634,6.671299 l 0.186466,0.00256 0.0547,0.1154088 z M 16.88814,7.7587075 c 0.07956,0.043599 0.104421,0.2051712 0.131769,0.8309434 0.01243,0.3154507 0.03978,0.7027113 0.06216,0.8642837 0.01989,0.1615723 0.03729,0.3026275 0.03729,0.312886 0,0.043599 0.08205,0.100021 0.149173,0.100021 0.09199,0 0.09199,0.00769 0.114366,0.6847584 l 0.01492,0.546269 -0.104421,0.228253 c -0.05967,0.128232 -0.121824,0.235947 -0.141714,0.243641 -0.01989,0.01026 -0.362987,0.02821 -0.76078,0.04103 -0.40028,0.01539 -1.190895,0.0436 -1.757751,0.06412 -1.146142,0.04103 -2.366872,0.07694 -4.02766,0.115409 -0.6091212,0.01539 -1.2281875,0.03847 -1.3798464,0.05129 -0.3878487,0.0359 -1.7328883,0.128232 -1.8721161,0.128232 -0.1019346,0 -0.1317691,-0.01282 -0.1939244,-0.0795 l -0.0721,-0.07694 0,-0.774521 c 0,-0.96174 -0.012431,-0.92327 0.3281798,-1.0951012 0.1914381,-0.094892 0.2361899,-0.128232 0.2560796,-0.192348 0.037293,-0.1154088 0.074586,-0.6437246 0.074586,-1.0668902 0,-0.256464 0.00994,-0.384696 0.032321,-0.4154717 0.024862,-0.03334 0.1143657,-0.046163 0.5022144,-0.069245 0.2610521,-0.015388 0.5519387,-0.03847 0.6513871,-0.051293 0.119338,-0.017952 0.201383,-0.015388 0.2461348,0.00256 0.047238,0.015388 0.1417139,0.015388 0.2983452,-0.00256 0.1267967,-0.012823 0.3256935,-0.025646 0.4375729,-0.025646 0.1143651,0 0.3679591,-0.023082 0.5668561,-0.051293 0.198897,-0.025646 0.619066,-0.066681 0.932328,-0.089762 0.315749,-0.020517 0.706084,-0.051293 0.870174,-0.064116 0.338125,-0.028211 1.32515,-0.082069 2.548365,-0.1410552 0.457463,-0.020517 0.890063,-0.043599 0.957191,-0.048728 0.25608,-0.020517 1.046694,0.00256 1.098905,0.030776 z m 1.650843,2.4030675 c 0.0099,0.18209 0.02983,0.435989 0.04724,0.561656 0.0174,0.123103 0.03232,0.346227 0.03481,0.492411 0.0025,0.356485 0.0025,0.356485 -0.3605,0.356485 l -0.27597,0 -0.0721,-0.08976 c -0.03978,-0.04873 -0.07956,-0.128232 -0.08702,-0.17696 -0.01989,-0.100021 0.0075,-1.24898 0.02983,-1.3797767 0.01492,-0.074374 0.02486,-0.082068 0.119338,-0.092327 0.0547,-0.00513 0.203869,-0.00769 0.325693,-0.00769 l 0.223759,0.00256 0.01492,0.3334027 z M 6.577826,10.70035 c -0.00249,0.777086 -0.024862,1.025856 -0.1118795,1.248979 l -0.067128,0.174396 -0.1790071,0 c -0.096962,0 -0.188952,-0.01026 -0.2038693,-0.02052 -0.049724,-0.03334 -0.054697,-0.310322 -0.01989,-0.954046 0.054697,-1.043809 0.044752,-1.010469 0.3381245,-1.046374 0.1143657,-0.01282 0.2163003,-0.02052 0.2262451,-0.02052 0.012431,0.0026 0.01989,0.279546 0.017404,0.618079 z m 14.852619,1.395164 c 1.566312,0.03078 1.82985,0.05129 2.026261,0.148749 0.355528,0.17696 0.678735,0.730922 0.745863,1.277191 0.111879,0.92327 0.154145,1.518266 0.188952,2.680048 0.02238,0.669371 0.04972,1.32079 0.06464,1.449022 0.05967,0.533445 0.06961,0.859154 0.08702,2.615933 0.0174,2.044018 -0.0025,2.81341 -0.08702,3.141684 -0.06216,0.253899 -0.23619,0.669371 -0.303318,0.725793 -0.02983,0.02308 -0.116851,0.06155 -0.193924,0.08463 -0.07707,0.02052 -0.283428,0.08463 -0.457463,0.141055 -0.3605,0.115409 -0.790614,0.202607 -1.459405,0.292369 -0.253593,0.03334 -0.648901,0.09233 -0.882604,0.128232 -0.231218,0.0359 -0.78067,0.107715 -1.218243,0.156443 -0.437573,0.04873 -0.969622,0.115409 -1.18095,0.151314 -0.514645,0.08463 -1.486754,0.141055 -2.784555,0.166702 -0.812991,0.01539 -1.213271,0.0359 -1.740347,0.08463 -1.220729,0.117973 -1.524047,0.14362 -1.901951,0.159007 -0.203869,0.0077 -0.763266,0.03078 -1.243105,0.05129 -1.2082979,0.05129 -3.8188184,0.102586 -5.0842993,0.100021 C 4.884717,25.647072 4.4570889,25.616296 4.0045986,25.511146 3.8827744,25.482935 3.5173015,25.413689 3.1965804,25.354703 2.8758593,25.29828 2.351269,25.195695 2.0305479,25.131579 l -0.5817731,-0.120538 -0.089504,-0.256464 -0.087017,-0.256464 0,-0.807862 c -0.00249,-0.443683 0.012431,-1.397729 0.027348,-2.115828 0.017403,-0.720664 0.042266,-2.220978 0.057183,-3.334032 0.032321,-2.613368 0.047238,-2.790328 0.2535934,-3.449441 0.1665761,-0.528315 0.3132625,-0.81812 0.6414422,-1.269496 0.2685107,-0.366744 0.248621,-0.353921 0.7185147,-0.433425 0.7980734,-0.133361 0.9994564,-0.146184 2.1406268,-0.13849 1.0243185,0.0051 1.4966984,-0.01795 1.6185227,-0.08463 0.022376,-0.01026 0.1118795,-0.03334 0.1988968,-0.04616 0.1790071,-0.03078 1.7527781,-0.130796 2.0287474,-0.130796 0.096962,0 0.2063554,-0.01026 0.2411623,-0.02565 0.096962,-0.03591 0.5991767,-0.07181 1.2953159,-0.08976 0.474866,-0.01282 0.66879,-0.02821 0.820449,-0.06668 0.208842,-0.04873 0.855256,-0.100021 1.317691,-0.100021 0.151659,0 0.353042,-0.01282 0.447518,-0.02821 0.392821,-0.05899 0.604149,-0.07694 1.255536,-0.100021 0.375418,-0.01282 0.768239,-0.0359 0.870174,-0.05129 0.390335,-0.05386 0.70857,-0.07437 1.504157,-0.10515 2.130682,-0.07694 2.232616,-0.07694 4.721313,-0.02565 z"
       id="path8"
       inkscape:connector-curvature="0"
       style="fill:#000000;stroke:none" />
    <path
       d="m 16.721563,10.187422 c -0.0174,0.0359 -0.02486,0.07181 -0.01492,0.08207 0.02238,0.02308 0.0895,-0.06412 0.0895,-0.112844 0,-0.05386 -0.03978,-0.03847 -0.07459,0.03078 z"
       id="path10"
       inkscape:connector-curvature="0"
       style="fill:#000000;stroke:none" />
    <path
       d="m 16.527638,10.177163 c 0.005,0.01539 0.01989,0.02565 0.03232,0.02565 0.01243,0 0.02735,-0.01026 0.03232,-0.02565 0.005,-0.01539 -0.0099,-0.02821 -0.03232,-0.02821 -0.02238,0 -0.03729,0.01282 -0.03232,0.02821 z"
       id="path12"
       inkscape:connector-curvature="0"
       style="fill:#000000;stroke:none" />
    <path
       d="m 16.771287,10.37977 c 0,0.01282 0.01243,0.02565 0.02486,0.02565 0.01492,0 0.02486,-0.01282 0.02486,-0.02565 0,-0.01539 -0.0099,-0.02565 -0.02486,-0.02565 -0.01243,0 -0.02486,0.01026 -0.02486,0.02565 z"
       id="path14"
       inkscape:connector-curvature="0"
       style="fill:#000000;stroke:none" />
    <path
       d="m 17.04477,10.520825 c -0.0174,0.02052 -0.01989,0.03847 -0.005,0.03847 0.01243,0 0.03729,-0.01795 0.0547,-0.03847 0.0174,-0.02052 0.01989,-0.03847 0.005,-0.03847 -0.01243,0 -0.03729,0.01795 -0.0547,0.03847 z"
       id="path16"
       inkscape:connector-curvature="0"
       style="fill:#000000;stroke:none" />
    <path
       d="m 17.26107,10.654186 c -0.02983,0.02821 -0.01989,0.05899 0.01989,0.05899 0.01989,0 0.03729,-0.01795 0.03729,-0.03847 0,-0.04103 -0.02983,-0.05129 -0.05718,-0.02052 z"
       id="path18"
       inkscape:connector-curvature="0"
       style="fill:#000000;stroke:none" />
    <path
       d="m 20.294247,14.639637 c -0.09448,0.01026 -0.211328,0.0359 -0.261052,0.05642 -0.05221,0.02052 -0.134256,0.0436 -0.186466,0.05386 -0.159118,0.03078 -0.686194,0.241076 -0.999457,0.402649 -0.397793,0.202606 -0.979566,0.638595 -1.315205,0.987386 -0.186465,0.189783 -0.770725,0.892495 -0.967135,1.159217 -0.07956,0.107715 -0.228732,0.371873 -0.330666,0.582174 -0.149173,0.307756 -0.20387,0.456506 -0.27597,0.743745 -0.08702,0.351356 -0.0895,0.369308 -0.09199,0.871978 -0.0025,0.456506 0.0025,0.533445 0.05221,0.692453 0.106907,0.361614 0.313262,0.879671 0.447518,1.128441 0.430114,0.797603 0.862715,1.279756 1.387305,1.538784 0.698625,0.348791 1.504157,0.538575 2.535934,0.602691 0.499728,0.03334 0.614094,0.02565 0.972108,-0.05129 0.770725,-0.169266 1.352498,-0.505234 1.834823,-1.064326 0.377904,-0.435989 0.860229,-1.415681 1.004429,-2.038889 0.09945,-0.430859 0.11188,-0.589867 0.09696,-1.238721 -0.01492,-0.651418 -0.06216,-1.030985 -0.169062,-1.395164 -0.05221,-0.179525 -0.338125,-0.866848 -0.484811,-1.161782 -0.246135,-0.502669 -0.837853,-1.24385 -1.066584,-1.333613 -0.03481,-0.01539 -0.114366,-0.05899 -0.171549,-0.102585 -0.146686,-0.102586 -0.338124,-0.189784 -0.748349,-0.335968 l -0.348069,-0.125667 -0.372932,0.0026 c -0.203869,0.0026 -0.450004,0.01282 -0.541993,0.02565 z m 0.90498,0.759133 c 0.07707,0.02821 0.203869,0.09489 0.283428,0.148749 0.427628,0.279546 1.270453,1.010468 1.437029,1.238721 0.09945,0.14362 0.333152,0.67963 0.452491,1.043809 0.111879,0.343662 0.285914,1.400293 0.285914,1.738826 0,0.433424 -0.358015,1.410552 -0.72846,1.985031 -0.325693,0.507799 -0.952218,0.982257 -1.292829,0.982257 -0.05718,0 -0.266025,0.03591 -0.464921,0.07694 -0.681222,0.146185 -1.481781,0.161573 -1.906923,0.03847 -0.430115,-0.128232 -1.327637,-0.643725 -1.521561,-0.874542 -0.04475,-0.05642 -0.176521,-0.200042 -0.290886,-0.323145 -0.196411,-0.2103 -0.223759,-0.253899 -0.417684,-0.666806 -0.372931,-0.792474 -0.479838,-1.166911 -0.450004,-1.595206 0.03978,-0.582174 0.181494,-1.056632 0.425142,-1.428505 0.372932,-0.561656 1.220729,-1.364388 2.036206,-1.920915 0.385363,-0.264158 0.52459,-0.335968 0.798074,-0.412907 0.390335,-0.11028 1.096418,-0.125668 1.354984,-0.03078 z"
       id="path20"
       inkscape:connector-curvature="0"
       style="fill:#000000;stroke:none" />
    <path
       d="m 20.077946,17.699252 c -0.348069,0.107715 -0.808018,0.433424 -0.982053,0.695018 -0.176521,0.264158 -0.273483,0.751439 -0.213814,1.077148 0.01492,0.08207 0.05967,0.223124 0.09945,0.310322 0.0895,0.194912 0.350555,0.487281 0.527076,0.587302 l 0.129283,0.07181 0.42017,-0.01795 c 0.469893,-0.01795 0.624038,-0.0436 0.803045,-0.135926 0.238677,-0.120538 0.40028,-0.32058 0.693653,-0.864284 l 0.16409,-0.305192 0,-0.223124 c 0,-0.323144 -0.04475,-0.453941 -0.231218,-0.659112 -0.186465,-0.205171 -0.445031,-0.384696 -0.691166,-0.479588 -0.221273,-0.0872 -0.541994,-0.112844 -0.718515,-0.05642 z m 0.527077,0.810426 c 0.07956,0.169267 0.141714,0.484717 0.161603,0.833508 l 0.01492,0.259029 -0.07956,0.06668 c -0.169062,0.148749 -0.559397,0.151313 -0.942274,0.0077 -0.23619,-0.0872 -0.261052,-0.128232 -0.248621,-0.39752 0.02486,-0.553962 0.397794,-0.930964 0.902495,-0.915576 l 0.12431,0.0051 0.06713,0.141055 z"
       id="path22"
       inkscape:connector-curvature="0"
       style="fill:#000000;stroke:none" />
    <path
       d="m 15.600282,15.160259 c -0.005,0.0051 -0.193924,0.02308 -0.420169,0.03847 -0.226246,0.01539 -0.745863,0.05899 -1.156088,0.09233 -0.410225,0.03334 -0.857743,0.06925 -0.994484,0.07694 -0.136742,0.01026 -0.40028,0.03334 -0.584259,0.05386 -0.18398,0.01795 -0.459949,0.03591 -0.609122,0.03591 -0.151659,0 -0.362987,0.01026 -0.47238,0.02565 -0.109393,0.01282 -0.410224,0.03591 -0.671276,0.05129 -0.47238,0.02565 -0.643929,0.05129 -0.688681,0.09746 -0.017403,0.01795 -0.014917,0.06925 0.0025,0.151314 0.01492,0.06668 0.04475,0.382131 0.06464,0.700147 0.0174,0.318015 0.04475,0.607819 0.05967,0.646289 0.09696,0.261593 0.850284,0.335968 1.991454,0.194913 0.586746,-0.07181 0.765753,-0.08463 2.702511,-0.187219 0.658845,-0.0359 1.230674,-0.07694 1.270453,-0.09233 0.104421,-0.03847 0.149172,-0.161572 0.181493,-0.505234 0.02984,-0.325709 0.01492,-0.500105 -0.07459,-0.938658 -0.05221,-0.256464 -0.119338,-0.407778 -0.191438,-0.435989 -0.04227,-0.01795 -0.392821,-0.02052 -0.410225,-0.0051 z m 0.23619,0.474458 c 0.01989,0.03078 0.114366,0.705276 0.114366,0.807862 0,0.06668 -0.01243,0.08976 -0.0547,0.102585 -0.08205,0.02565 -0.850284,0.166702 -0.860229,0.159008 -0.0025,-0.0051 -0.0099,-0.11028 -0.01492,-0.235947 -0.005,-0.125667 -0.0174,-0.343662 -0.02735,-0.484717 -0.02486,-0.338532 -0.03481,-0.328274 0.420169,-0.348791 0.193925,-0.0077 0.362987,-0.01539 0.38039,-0.01795 0.01492,-0.0026 0.03481,0.0051 0.04227,0.01795 z m -1.504157,0.09489 c 0.04227,0.01026 0.0895,0.0359 0.101935,0.05899 0.0174,0.03334 0.09945,0.769392 0.09945,0.88993 0,0.06925 -0.203869,0.09746 -0.678735,0.09746 -0.25608,-0.0026 -0.47238,-0.01026 -0.482325,-0.01795 -0.0099,-0.01026 -0.02486,-0.200042 -0.03481,-0.423165 -0.0099,-0.220559 -0.02486,-0.433424 -0.03481,-0.471894 -0.02238,-0.09233 0.01492,-0.100021 0.47238,-0.123103 0.203869,-0.01026 0.397794,-0.02052 0.425142,-0.02052 0.02983,-0.0026 0.0895,0.0026 0.131769,0.01026 z m -1.536478,0.153878 c 0.03978,0.04873 0.04972,0.866848 0.0099,0.902753 -0.02735,0.02821 -1.049181,0.08976 -1.083988,0.06668 -0.01243,-0.0077 -0.02237,-0.197477 -0.02237,-0.420601 0,-0.243641 -0.0099,-0.412907 -0.02486,-0.423166 -0.04475,-0.02821 -0.02486,-0.05899 0.04724,-0.07694 0.109394,-0.02308 0.713543,-0.08463 0.887577,-0.0872 0.11188,-0.0026 0.161604,0.0077 0.186466,0.03847 z m -1.573771,0.53601 c -0.005,0.28211 -0.0174,0.456506 -0.03481,0.474458 -0.03232,0.03334 -0.447517,0.06668 -0.539507,0.04103 -0.07956,-0.02052 -0.08453,-0.04616 -0.104421,-0.548833 -0.01492,-0.348791 -0.01492,-0.369308 0.02983,-0.35392 0.02486,0.0077 0.151659,-0.0026 0.280942,-0.02052 0.129283,-0.01795 0.268511,-0.0359 0.305804,-0.03847 l 0.06961,-0.0026 -0.0075,0.448812 z"
       id="path24"
       inkscape:connector-curvature="0"
       style="fill:#000000;stroke:none" />
    <path
       d="m 6.1576565,15.280797 c -0.087017,0.01282 -0.2933728,0.07181 -0.4599488,0.128232 -1.1585739,0.400083 -1.8895196,0.905318 -2.366872,1.638805 -0.4326005,0.659112 -0.6314973,1.069454 -0.947246,1.943997 -0.248621,0.695017 -0.261052,0.777086 -0.2511072,1.761907 l 0.00746,0.820685 0.082045,0.243641 c 0.074586,0.225688 0.1019346,0.274416 0.415197,0.692453 0.4027661,0.53601 0.5768008,0.723228 0.8577425,0.920706 0.4425454,0.312886 0.8129907,0.456505 1.6011192,0.623207 l 0.4997282,0.102586 0.4350868,-0.01282 c 0.7433768,-0.02565 1.3475258,-0.17696 1.9765369,-0.494975 0.5370214,-0.266723 0.9522185,-0.56935 1.3624431,-0.982257 0.4475178,-0.451377 0.6837078,-0.815556 0.8502838,-1.310531 0.23619,-0.705276 0.310776,-1.154088 0.261052,-1.587512 C 10.446367,19.45347 10.247473,18.532764 10.160456,18.2763 10.070956,18.017272 9.5538208,17.124777 9.2480169,16.70674 8.9770186,16.332299 8.5096112,15.834759 8.3107144,15.703962 8.0645796,15.54239 7.6642998,15.380818 7.3758994,15.324396 c -0.30829,-0.05642 -0.9795667,-0.08207 -1.2182429,-0.0436 z m 0.8204493,0.548833 c 0.3828763,0.06668 0.6737629,0.197477 1.0864738,0.482152 0.4176833,0.28724 0.758294,0.677065 1.1536014,1.313096 0.1814934,0.292369 0.2436486,0.448812 0.402766,1.000209 0.1640899,0.566786 0.2138141,0.869413 0.2138141,1.338742 0,0.377002 -0.029834,0.512928 -0.2262451,0.997645 -0.2560796,0.636031 -0.4350868,0.918141 -0.8477976,1.333613 -0.5743145,0.579609 -0.8701735,0.766827 -1.4643777,0.918141 -0.6961388,0.179525 -1.0815014,0.202607 -1.5016709,0.09233 -0.1093932,-0.02821 -0.2709968,-0.05129 -0.3605004,-0.05129 -0.248621,0 -0.6215525,-0.06668 -0.8080183,-0.143619 C 4.3949336,23.013186 4.2358162,22.884954 3.795757,22.431013 3.3532116,21.974507 3.1344252,21.702655 3.0996182,21.566729 3.049894,21.382075 3.0150871,20.828113 3.0150871,20.202341 c -0.00249,-0.602691 0,-0.64116 0.067128,-0.936094 0.037293,-0.169266 0.094476,-0.38726 0.1267968,-0.484717 0.064641,-0.189783 0.3281797,-0.700146 0.569342,-1.10023 0.188952,-0.312886 0.5817732,-0.789909 0.7906148,-0.959176 0.2709969,-0.220559 0.8751459,-0.546268 1.3748741,-0.741181 0.5171317,-0.200042 0.6563595,-0.220559 1.0342634,-0.151313 z"
       id="path26"
       inkscape:connector-curvature="0"
       style="fill:#000000;stroke:none" />
    <path
       d="M 6.0010253,18.358365 C 5.8220182,18.39427 5.5012971,18.543019 5.3247762,18.673815 5.1233931,18.82 5.0065413,18.961055 4.8921756,19.189308 l -0.09199,0.179525 0.00249,0.32058 c 0.00249,0.366743 0.032321,0.484717 0.2063554,0.792474 0.1839795,0.323144 0.3480694,0.446247 0.7210009,0.53088 0.1690623,0.03847 0.1939244,0.03847 0.3853625,-0.0026 0.1093933,-0.02565 0.2560797,-0.06668 0.3232073,-0.09489 0.2859142,-0.115409 0.8030459,-0.530881 0.9049805,-0.725793 0.032321,-0.06155 0.039779,-0.164137 0.042266,-0.525752 l 0,-0.448812 -0.082045,-0.169266 c -0.09199,-0.197477 -0.3928212,-0.512928 -0.5618834,-0.589867 -0.099448,-0.0436 -0.497242,-0.128232 -0.5842594,-0.123103 -0.022376,0.0026 -0.09199,0.01282 -0.1566312,0.02565 z m 0.5295627,0.594996 c 0.077072,0.01795 0.1566312,0.04616 0.1765209,0.06412 0.096962,0.08207 0.1367416,0.538575 0.069614,0.787345 -0.0721,0.269287 -0.3605005,0.435988 -0.6464146,0.377002 -0.2560796,-0.05642 -0.4823247,-0.259029 -0.5519386,-0.494976 -0.057183,-0.200042 0.059669,-0.448812 0.295859,-0.636031 0.1939243,-0.153878 0.3182348,-0.174395 0.6563594,-0.09746 z"
       id="path28"
       inkscape:connector-curvature="0"
       style="fill:#000000;stroke:none" />
    <path
       d="m 13.564076,17.717205 c -0.266024,0.02565 -0.842825,0.08976 -1.280398,0.141055 -0.437573,0.05129 -0.890063,0.100021 -1.006915,0.110279 -0.193924,0.01282 -0.223759,0.02308 -0.320721,0.105151 l -0.109393,0.0872 0.01492,0.451377 c 0.01492,0.369308 0.02983,0.515493 0.09696,0.820685 l 0.07956,0.371873 0.01243,1.364388 c 0.01492,1.331048 0.01492,1.364389 0.06713,1.436198 0.02735,0.03847 0.09945,0.08976 0.156632,0.11028 0.09448,0.03334 0.139227,0.03078 0.581773,-0.0359 0.437573,-0.06668 0.569342,-0.07437 1.583716,-0.09489 0.912439,-0.02052 1.153601,-0.03334 1.379846,-0.07437 0.151659,-0.02821 0.325694,-0.05642 0.387849,-0.06668 0.131769,-0.01795 0.467407,-0.182089 0.504701,-0.243641 0.01492,-0.02821 0.0099,-0.10515 -0.0174,-0.230817 -0.04227,-0.184654 -0.06216,-0.530881 -0.154145,-2.433844 -0.0547,-1.120747 -0.111879,-1.679839 -0.183979,-1.77473 -0.03232,-0.04104 -0.08702,-0.05642 -0.241163,-0.07437 -0.323207,-0.03334 -1.034263,-0.02052 -1.551395,0.03078 z m 1.20084,0.379566 c 0.191438,0.02565 0.353041,0.05899 0.365472,0.06925 0.02486,0.02821 0.0721,0.579608 0.05221,0.605255 -0.0075,0.01026 -0.201383,0.02052 -0.430115,0.02565 -0.482324,0.01026 -0.430114,0.04616 -0.454976,-0.338532 -0.0075,-0.133362 -0.01989,-0.282111 -0.02735,-0.328274 -0.01243,-0.0795 -0.0099,-0.08207 0.06961,-0.08207 0.04475,0 0.23619,0.02308 0.425142,0.04873 z m -1.031778,0.04616 c 0.03232,0.06412 0.08453,0.653983 0.06216,0.677065 -0.02735,0.02821 -0.92487,0.0795 -1.024319,0.05899 -0.04227,-0.01026 -0.08453,-0.02821 -0.09448,-0.0436 -0.01492,-0.02308 -0.106907,-0.587303 -0.09696,-0.600126 0.0099,-0.01282 0.877632,-0.130797 0.989512,-0.133361 0.111879,-0.0026 0.146686,0.0077 0.164089,0.04103 z m -1.618522,0.156443 c 0.09696,0.06412 0.1442,0.451377 0.06713,0.564221 -0.03729,0.05386 -0.05221,0.05642 -0.442545,0.05642 -0.295859,0 -0.412711,-0.0077 -0.432601,-0.03334 -0.01243,-0.01539 -0.03232,-0.130796 -0.04227,-0.251334 l -0.0174,-0.220559 0.196411,-0.01795 c 0.106907,-0.0077 0.278455,-0.03847 0.38039,-0.06412 0.2163,-0.05642 0.251107,-0.05899 0.290887,-0.03334 z m 3.122679,1.754214 c 0.0075,0.533445 0.02735,1.020726 0.0547,1.295143 0.02735,0.294933 0.03481,0.474458 0.01989,0.538574 -0.01989,0.09489 -0.02486,0.100021 -0.218787,0.156443 -0.109393,0.03078 -0.293373,0.06925 -0.410224,0.08463 -0.208842,0.02821 -2.580686,0.06925 -3.03069,0.05386 l -0.231218,-0.0077 0.01492,-0.08207 c 0.0075,-0.04616 0.01989,-0.307756 0.02984,-0.582173 0.01243,-0.410342 0.0075,-0.600126 -0.03729,-1.051502 -0.02735,-0.302628 -0.05718,-0.615514 -0.06464,-0.692453 -0.0099,-0.09489 -0.0025,-0.156443 0.0174,-0.187219 0.04227,-0.05899 0.422655,-0.130796 0.989511,-0.182089 0.238676,-0.02308 0.599177,-0.06412 0.80056,-0.09489 0.420169,-0.05899 0.929842,-0.08976 1.588688,-0.09746 l 0.464921,-0.0026 0.01243,0.851461 z"
       id="path30"
       inkscape:connector-curvature="0"
       style="fill:#000000;stroke:none" />
    <path
       d="m 12.30854,20.217729 c -0.114366,0.06412 -0.283428,0.241076 -0.340611,0.356485 -0.02983,0.05899 -0.05718,0.17183 -0.06464,0.271851 -0.01492,0.225689 0.03481,0.328274 0.226245,0.474459 0.169062,0.128232 0.270997,0.164137 0.479838,0.164137 0.126797,0 0.169063,-0.01282 0.266025,-0.0795 0.134255,-0.09233 0.303318,-0.279546 0.3605,-0.402649 0.02735,-0.05899 0.06464,-0.08976 0.126797,-0.107714 0.07956,-0.02052 0.298345,-0.05899 0.360501,-0.06412 0.01243,0 0.04972,0.0795 0.07956,0.179524 0.09448,0.305193 0.203869,0.366744 0.681222,0.389826 l 0.2884,0.01539 0.141714,-0.161573 c 0.166576,-0.189783 0.266025,-0.384696 0.263538,-0.510363 -0.005,-0.223124 -0.139227,-0.402649 -0.367959,-0.492411 -0.156631,-0.06412 -0.198896,-0.06412 -1.208298,-0.05129 -0.340611,0.0051 -0.755808,0.0026 -0.919897,-0.0077 -0.251108,-0.01282 -0.310777,-0.01026 -0.372932,0.02565 z m 0.497242,0.382131 c 0.06713,0.06668 0.07956,0.161572 0.03481,0.251335 -0.05221,0.10515 -0.156631,0.197477 -0.253593,0.225688 -0.08702,0.02308 -0.106907,0.02052 -0.188952,-0.0359 -0.04973,-0.03334 -0.104421,-0.09233 -0.124311,-0.128232 -0.04227,-0.0795 -0.01989,-0.112844 0.179007,-0.276981 0.146687,-0.123103 0.261052,-0.133361 0.353042,-0.0359 z m 1.730402,-0.03847 c 0.02486,0.01539 0.06215,0.05899 0.08204,0.100021 0.03481,0.06668 0.03232,0.08207 -0.03481,0.228253 -0.0895,0.197478 -0.146686,0.233383 -0.261052,0.159008 -0.114366,-0.07181 -0.211328,-0.194913 -0.211328,-0.266723 0,-0.06412 0.0721,-0.141055 0.186466,-0.202606 0.08702,-0.04873 0.171549,-0.05386 0.238676,-0.01795 z"
       id="path32"
       inkscape:connector-curvature="0"
       style="fill:#000000;stroke:none" />
  </g>
</svg>
